<?xml version="1.0" encoding="UTF-8" standalone="no"?>
<!DOCTYPE svg PUBLIC "-//W3C//DTD SVG 1.1//EN" "http://www.w3.org/Graphics/SVG/1.1/DTD/svg11.dtd">
<svg width="100%" height="100%" viewBox="0 0 800 800" version="1.1" xmlns="http://www.w3.org/2000/svg" xmlns:xlink="http://www.w3.org/1999/xlink" xml:space="preserve" xmlns:serif="http://www.serif.com/" style="fill-rule:evenodd;clip-rule:evenodd;stroke-linejoin:round;stroke-miterlimit:2;">
    <path d="M133.333,133.333C124.493,133.333 116.014,136.845 109.763,143.096C103.512,149.348 100,157.826 100,166.667L100,633.333C100,642.173 103.512,650.653 109.763,656.903C116.014,663.153 124.493,666.667 133.333,666.667L666.667,666.667C675.507,666.667 683.987,663.153 690.237,656.903C696.487,650.653 700,642.173 700,633.333L700,266.667C700,257.826 696.487,249.348 690.237,243.096C683.987,236.845 675.507,233.333 666.667,233.333L384.507,233.333C362.217,233.333 341.4,222.193 329.036,203.647L282.161,133.333L133.333,133.333ZM62.623,95.956C81.376,77.202 106.812,66.667 133.333,66.667L282.161,66.667C304.451,66.667 325.266,77.807 337.63,96.353L384.507,166.667L666.667,166.667C693.19,166.667 718.623,177.202 737.377,195.956C756.13,214.71 766.667,240.145 766.667,266.667L766.667,633.333C766.667,659.857 756.13,685.29 737.377,704.043C718.623,722.797 693.19,733.333 666.667,733.333L133.333,733.333C106.812,733.333 81.376,722.797 62.623,704.043C43.869,685.29 33.333,659.857 33.333,633.333L33.333,166.667C33.333,140.145 43.869,114.71 62.623,95.956Z" style="fill:rgb(132,132,132);"/>
</svg>
