<?xml version="1.0" encoding="UTF-8" standalone="no"?><!DOCTYPE svg PUBLIC "-//W3C//DTD SVG 1.1//EN" "http://www.w3.org/Graphics/SVG/1.1/DTD/svg11.dtd"><svg width="100%" height="100%" viewBox="0 0 800 800" version="1.1" xmlns="http://www.w3.org/2000/svg" xmlns:xlink="http://www.w3.org/1999/xlink" xml:space="preserve" xmlns:serif="http://www.serif.com/" style="fill-rule:evenodd;clip-rule:evenodd;stroke-linejoin:round;stroke-miterlimit:2;"><path d="M133.333,133.333c-8.84,0 -17.319,3.512 -23.57,9.763c-6.251,6.252 -9.763,14.73 -9.763,23.571l0,466.666c0,8.84 3.512,17.32 9.763,23.57c6.251,6.25 14.73,9.764 23.57,9.764l533.334,0c8.84,0 17.32,-3.514 23.57,-9.764c6.25,-6.25 9.763,-14.73 9.763,-23.57l-0,-366.666c-0,-8.841 -3.513,-17.319 -9.763,-23.571c-6.25,-6.251 -14.73,-9.763 -23.57,-9.763l-282.16,0c-22.29,0 -43.107,-11.14 -55.471,-29.686l-46.875,-70.314l-148.828,0Zm-70.71,-37.377c18.753,-18.754 44.189,-29.289 70.71,-29.289l148.828,0c22.29,0 43.105,11.14 55.469,29.686l46.877,70.314l282.16,0c26.523,0 51.956,10.535 70.71,29.289c18.753,18.754 29.29,44.189 29.29,70.711l0,366.666c0,26.524 -10.537,51.957 -29.29,70.71c-18.754,18.754 -44.187,29.29 -70.71,29.29l-533.334,0c-26.521,0 -51.957,-10.536 -70.71,-29.29c-18.754,-18.753 -29.29,-44.186 -29.29,-70.71l0,-466.666c0,-26.522 10.536,-51.957 29.29,-70.711Z" style="fill:#848484;"/></svg>