<?xml version="1.0" encoding="UTF-8" standalone="no"?>
<!DOCTYPE svg PUBLIC "-//W3C//DTD SVG 1.1//EN" "http://www.w3.org/Graphics/SVG/1.1/DTD/svg11.dtd">
<svg width="100%" height="100%" viewBox="0 0 800 800" version="1.1" xmlns="http://www.w3.org/2000/svg" xmlns:xlink="http://www.w3.org/1999/xlink" xml:space="preserve" xmlns:serif="http://www.serif.com/" style="fill-rule:evenodd;clip-rule:evenodd;stroke-linejoin:round;stroke-miterlimit:2;">
    <path d="M718.5,128C677.758,91.028 623.276,72.868 568.5,78C536.555,79.45 505.389,88.355 477.5,104C450.096,117.706 424.133,134.121 400,153C376.827,133.983 351.879,117.24 325.5,103C298.544,87.29 268.169,78.366 237,77C180.049,72.032 123.562,91.285 81.5,130C40.874,167.677 17.678,220.592 17.5,276C18.778,318.643 34.269,359.66 61.5,392.5C143.232,507.288 238.973,611.427 346.5,702.5L366,678L347,702.5C361.653,715.498 380.421,722.935 400,723.5C419.891,722.998 438.996,715.568 454,702.5C568.25,603.014 669.996,490.02 757,366C772.293,339.551 780.396,309.552 780.5,279C782.248,222.169 759.68,167.205 718.5,128ZM705.5,331C621.652,449.672 524.149,558.083 415,654C411.035,657.435 406.183,659.688 401,660.5C395.538,659.794 390.45,657.337 386.5,653.5C283.087,566.216 190.884,466.455 112,356.5C92.911,333.838 81.679,305.583 80,276C80.226,238.038 96.164,201.814 124,176C153.228,149.202 192.539,136.098 232,140L237,140C258.034,141.649 278.403,148.154 296.5,159C319.336,170.996 341.232,184.701 362,200L400,231.5L438,200C459.019,183.715 481.44,169.326 505,157C524.23,145.764 545.785,139.092 568,137.5L573,137.5C610.739,133.667 648.386,146.034 676.5,171.5C704.005,197.505 719.727,233.649 720,271.5C720.952,292.309 715.919,312.962 705.5,331Z" style="fill:rgb(132,132,132);fill-rule:nonzero;"/>
</svg>
