<?xml version="1.0" encoding="UTF-8" standalone="no"?><!DOCTYPE svg PUBLIC "-//W3C//DTD SVG 1.1//EN" "http://www.w3.org/Graphics/SVG/1.1/DTD/svg11.dtd"><svg width="100%" height="100%" viewBox="0 0 800 800" version="1.1" xmlns="http://www.w3.org/2000/svg" xmlns:xlink="http://www.w3.org/1999/xlink" xml:space="preserve" xmlns:serif="http://www.serif.com/" style="fill-rule:evenodd;clip-rule:evenodd;stroke-linejoin:round;stroke-miterlimit:2;"><path d="M718.5,128c-40.742,-36.972 -95.224,-55.132 -150,-50c-31.945,1.45 -63.111,10.355 -91,26c-27.404,13.706 -53.367,30.121 -77.5,49c-23.173,-19.017 -48.121,-35.76 -74.5,-50c-26.956,-15.71 -57.331,-24.634 -88.5,-26c-56.951,-4.968 -113.438,14.285 -155.5,53c-40.626,37.677 -63.822,90.592 -64,146c1.278,42.643 16.769,83.66 44,116.5c81.732,114.788 177.473,218.927 285,310l19.5,-24.5l-19,24.5c14.653,12.998 33.421,20.435 53,21c19.891,-0.502 38.996,-7.932 54,-21c114.25,-99.486 215.996,-212.48 303,-336.5c15.293,-26.449 23.396,-56.448 23.5,-87c1.748,-56.831 -20.82,-111.795 -62,-151Zm-13,203c-83.848,118.672 -181.351,227.083 -290.5,323c-3.965,3.435 -8.817,5.688 -14,6.5c-5.462,-0.706 -10.55,-3.163 -14.5,-7c-103.413,-87.284 -195.616,-187.045 -274.5,-297c-19.089,-22.662 -30.321,-50.917 -32,-80.5c0.226,-37.962 16.164,-74.186 44,-100c29.228,-26.798 68.539,-39.902 108,-36l5,0c21.034,1.649 41.403,8.154 59.5,19c22.836,11.996 44.732,25.701 65.5,41l38,31.5l38,-31.5c21.019,-16.285 43.44,-30.674 67,-43c19.23,-11.236 40.785,-17.908 63,-19.5l5,0c37.739,-3.833 75.386,8.534 103.5,34c27.505,26.005 43.227,62.149 43.5,100c0.952,20.809 -4.081,41.462 -14.5,59.5Z" style="fill:#848484;fill-rule:nonzero;"/></svg>