<?xml version="1.0" encoding="UTF-8" standalone="no"?>
<!DOCTYPE svg PUBLIC "-//W3C//DTD SVG 1.1//EN" "http://www.w3.org/Graphics/SVG/1.1/DTD/svg11.dtd">
<svg width="100%" height="100%" viewBox="0 0 800 800" version="1.1" xmlns="http://www.w3.org/2000/svg" xmlns:xlink="http://www.w3.org/1999/xlink" xml:space="preserve" xmlns:serif="http://www.serif.com/" style="fill-rule:evenodd;clip-rule:evenodd;stroke-linejoin:round;stroke-miterlimit:2;">
    <path id="path25797" d="M0,267.747C0,261.556 5.019,256.537 11.21,256.537C47.974,256.537 162.544,256.537 162.544,256.537C162.544,256.537 331.994,118.431 388.774,72.153C392.129,69.419 396.758,68.86 400.667,70.717C404.576,72.573 407.067,76.515 407.067,80.842C407.067,186.284 407.067,613.717 407.067,719.158C407.067,723.486 404.576,727.427 400.667,729.284C396.758,731.141 392.129,730.582 388.774,727.848C331.994,681.57 162.544,543.463 162.544,543.463L11.21,543.463C5.019,543.463 0,538.444 0,532.253C0,486.424 0,313.576 0,267.747ZM490.445,232.765C492.699,230.447 495.807,229.157 499.039,229.199C502.272,229.24 505.346,230.609 507.539,232.984C549.898,279.277 571.535,334.682 572.437,399.211C572.438,399.266 572.438,399.322 572.438,399.377C572.418,461.327 550.783,514.962 507.531,560.284C505.322,562.581 502.276,563.882 499.089,563.891C495.903,563.899 492.849,562.614 490.628,560.329C481.33,550.792 466.425,535.46 457.332,526.107C453.005,521.656 452.877,514.609 457.039,510.004C485.921,477.851 500.353,440.472 500.353,397.88C500.353,354.323 485.857,316.001 456.864,282.914C452.798,278.308 452.965,271.347 457.248,266.942C466.261,257.641 481.116,242.362 490.445,232.765ZM575.31,148.844C577.564,146.65 580.603,145.449 583.748,145.509C586.893,145.57 589.883,146.886 592.052,149.165C657.183,218.142 689.753,300.573 689.753,396.466C689.753,492.306 657.22,575.13 592.154,644.944C589.974,647.265 586.947,648.603 583.763,648.653C580.579,648.703 577.511,647.46 575.26,645.209C565.436,635.401 549.392,619.357 539.686,609.651C535.163,605.127 535.079,597.82 539.496,593.193C590.672,539.158 616.255,473.816 616.255,397.173C616.255,320.522 590.666,254.745 539.489,199.845C535.094,195.169 535.258,187.835 539.856,183.36C549.587,173.872 565.553,158.337 575.31,148.844ZM653.063,71.319C655.3,69.081 658.344,67.838 661.508,67.87C664.672,67.902 667.69,69.205 669.882,71.487C709.229,112.87 740.354,160.416 763.251,214.134C787.75,271.613 800,332.391 800,396.466C800,460.541 787.75,521.555 763.251,579.505C740.354,633.664 709.228,681.443 669.872,722.846C667.683,725.126 664.668,726.429 661.508,726.461C658.347,726.493 655.306,725.252 653.071,723.017C643.566,713.53 628.228,698.192 618.818,688.782C614.289,684.253 614.211,676.934 618.642,672.309C691.493,595.741 727.917,504.027 727.917,397.173C727.917,290.32 691.494,198.605 618.649,122.031C614.222,117.41 614.3,110.097 618.825,105.572C628.229,96.154 643.568,80.815 653.063,71.319Z" style="fill-rule:nonzero;"/>
</svg>
